<?xml version="1.0" encoding="utf-8"?>
<svg version="1.1" xmlns="http://www.w3.org/2000/svg"
	 x="0px" y="0px" viewBox="240 170 180 160"  width="500" height="500">
<g id="OBJECTS">
	<g>
		<path d="M291.821,307.46c0.228-0.685,0.521-1.294,0.833-1.876c0.31-0.587,0.653-1.13,1.008-1.661
			c0.719-1.048,1.505-2.012,2.359-2.886c1.702-1.755,3.635-3.206,5.749-4.389c2.116-1.173,4.423-2.083,6.945-2.53
			c1.254-0.227,2.575-0.319,3.928-0.218c0.678,0.06,1.359,0.156,2.036,0.35c0.671,0.182,1.345,0.462,1.926,0.881
			c-0.584,0.442-1.072,0.826-1.545,1.227l-1.358,1.167c-0.884,0.753-1.746,1.483-2.634,2.167c-1.768,1.369-3.611,2.591-5.568,3.674
			c-1.959,1.079-4.018,2.031-6.253,2.764c-1.115,0.371-2.28,0.677-3.5,0.92c-0.614,0.115-1.237,0.222-1.888,0.293
			C293.208,307.417,292.543,307.471,291.821,307.46z" fill="#485A10"/>
		<path d="M279.561,303.288c0.122-0.857,0.446-1.632,0.793-2.395c0.179-0.375,0.384-0.73,0.586-1.098
			c0.206-0.362,0.444-0.687,0.67-1.036c0.464-0.688,0.989-1.296,1.524-1.922c0.552-0.589,1.128-1.161,1.728-1.704
			c2.414-2.15,5.216-3.724,8.132-4.883c2.916-1.188,5.994-1.831,9.1-2.091c1.558-0.096,3.134-0.056,4.703,0.069
			c0.792,0.105,1.581,0.224,2.374,0.394c0.791,0.165,1.582,0.361,2.379,0.651c-0.66,0.558-1.326,1.022-1.991,1.455
			c-0.664,0.438-1.331,0.825-1.996,1.198c-1.315,0.794-2.633,1.474-3.949,2.089c-2.603,1.311-5.223,2.331-7.797,3.381
			c-2.589,1.016-5.182,1.945-7.825,2.889c-0.655,0.242-1.319,0.481-2.006,0.703c-0.331,0.125-0.667,0.246-1.014,0.36l-0.523,0.171
			c-0.171,0.06-0.334,0.132-0.51,0.189l-2.13,0.741C281.098,302.72,280.345,302.971,279.561,303.288z" fill="#19381D"/>
		<path d="M266.933,289.901c0.746-0.613,1.521-1.126,2.305-1.611c0.783-0.486,1.58-0.923,2.383-1.34
			c1.609-0.819,3.248-1.531,4.914-2.136c3.329-1.222,6.761-2.044,10.253-2.56c3.488-0.516,7.063-0.674,10.667-0.347
			c0.905,0.096,1.794,0.171,2.704,0.353c0.906,0.167,1.803,0.365,2.695,0.591c0.901,0.277,1.788,0.568,2.654,0.909
			c0.872,0.39,1.718,0.835,2.508,1.353c-0.931,0.33-1.803,0.56-2.652,0.784c-0.864,0.282-1.707,0.513-2.535,0.73
			c-0.838,0.237-1.671,0.49-2.495,0.688c-0.411,0.099-0.825,0.205-1.24,0.321c-0.414,0.105-0.827,0.214-1.24,0.308
			c-3.301,0.799-6.611,1.42-9.971,1.915c-3.357,0.481-6.755,0.798-10.226,0.877c-1.734,0.043-3.49,0.004-5.27-0.109
			c-0.892-0.066-1.786-0.137-2.695-0.257C268.787,290.259,267.873,290.12,266.933,289.901z" fill="#485A10"/>
		<path d="M260.714,290.143c0.529-0.901,1.135-1.716,1.764-2.502c0.628-0.79,1.294-1.532,1.977-2.257
			c1.374-1.436,2.836-2.768,4.381-3.988c3.086-2.447,6.471-4.504,10.121-6.122c1.826-0.806,3.723-1.494,5.691-2.023
			c1.97-0.522,4.009-0.901,6.117-1.006c2.096-0.114,4.277,0.04,6.378,0.663c1.045,0.32,2.066,0.75,2.981,1.344
			c0.914,0.587,1.725,1.326,2.284,2.209c-2.057-0.333-3.816-0.151-5.528,0.214c-1.703,0.359-3.343,0.913-4.983,1.513
			c-3.271,1.216-6.525,2.665-9.845,4.118c-3.32,1.456-6.689,2.944-10.197,4.307c-1.751,0.687-3.545,1.333-5.384,1.941
			c-0.924,0.297-1.854,0.593-2.811,0.859C262.705,289.685,261.736,289.939,260.714,290.143z" fill="#19381D"/>
		<path d="M256.027,269.465c-0.057-0.25,0.041-0.545,0.171-0.784c0.135-0.234,0.306-0.483,0.494-0.663
			c0.381-0.422,0.806-0.711,1.254-1.026c0.444-0.293,0.899-0.508,1.371-0.762c0.467-0.226,0.933-0.388,1.41-0.585
			c0.482-0.197,0.956-0.329,1.431-0.469c0.477-0.14,0.959-0.269,1.444-0.392c0.956-0.211,1.914-0.372,2.882-0.524
			c1.907-0.231,3.838-0.387,5.722-0.355c0.945,0.005,1.898,0.015,2.837,0.072c0.936,0.065,1.87,0.149,2.804,0.244
			c1.874,0.174,3.707,0.507,5.539,0.879c1.835,0.361,3.638,0.85,5.424,1.423c1.789,0.561,3.558,1.214,5.29,2.015
			c0.866,0.403,1.729,0.818,2.581,1.283c0.853,0.46,1.699,0.949,2.525,1.53c-0.982,0.264-1.944,0.436-2.9,0.579
			c-0.956,0.148-1.901,0.245-2.843,0.331c-1.879,0.138-3.74,0.239-5.58,0.241c-1.841,0.006-3.664-0.085-5.474-0.172
			c-1.809-0.1-3.609-0.3-5.392-0.47c-0.892-0.098-1.783-0.207-2.673-0.334c-0.888-0.123-1.769-0.218-2.653-0.359
			c-1.774-0.293-3.516-0.532-5.278-0.878c-0.867-0.133-1.746-0.299-2.625-0.471c-0.431-0.066-0.865-0.137-1.304-0.221l-0.662-0.126
			c-0.222-0.045-0.429-0.054-0.648-0.094l-1.316-0.203l-1.31-0.139c-0.415-0.006-0.884-0.059-1.297-0.006
			c-0.239,0-0.42,0.049-0.645,0.1c-0.125,0.019-0.193,0.072-0.306,0.119c-0.059,0.023-0.105,0.051-0.147,0.089
			C256.11,269.373,256.06,269.409,256.027,269.465z" fill="#485A10"/>
		<path d="M254.433,257.278c0.788-0.524,1.612-0.94,2.441-1.307c0.83-0.38,1.672-0.684,2.521-0.979
			c0.849-0.272,1.704-0.526,2.566-0.739c0.861-0.202,1.726-0.386,2.595-0.532c3.476-0.592,7-0.671,10.493-0.359
			c1.748,0.133,3.485,0.442,5.206,0.788c0.859,0.192,1.712,0.428,2.56,0.666c0.424,0.121,0.846,0.248,1.267,0.379
			c0.418,0.151,0.836,0.299,1.25,0.46c0.829,0.316,1.651,0.646,2.46,1.014c0.805,0.391,1.595,0.822,2.376,1.256
			c0.387,0.232,0.776,0.444,1.155,0.69c0.375,0.262,0.751,0.512,1.116,0.79c0.734,0.542,1.451,1.11,2.126,1.763
			c-3.733,0.533-7.064,0.425-10.407,0.422c-0.415-0.008-0.826-0.03-1.237-0.048l-1.238-0.031c-0.823-0.028-1.637-0.081-2.451-0.138
			c-1.637-0.066-3.252-0.232-4.879-0.36c-3.245-0.304-6.488-0.706-9.781-1.264c-0.823-0.14-1.649-0.282-2.48-0.461
			c-0.83-0.157-1.665-0.352-2.506-0.543C257.901,258.341,256.207,257.908,254.433,257.278z" fill="#19381D"/>
		<path d="M252.986,250.894c0.715-0.557,1.462-1.005,2.217-1.424c0.755-0.414,1.522-0.787,2.296-1.124
			c0.775-0.331,1.557-0.648,2.346-0.913c0.789-0.279,1.584-0.521,2.386-0.729c3.205-0.851,6.489-1.3,9.81-1.316
			c0.826-0.023,1.662,0.021,2.493,0.063c0.832,0.052,1.661,0.097,2.496,0.225c0.833,0.111,1.662,0.241,2.488,0.395
			c0.83,0.188,1.654,0.391,2.47,0.621c0.815,0.204,1.63,0.536,2.427,0.844c0.4,0.156,0.796,0.321,1.187,0.494
			c0.391,0.181,0.78,0.395,1.163,0.599c0.381,0.218,0.76,0.425,1.131,0.651c0.37,0.231,0.74,0.439,1.089,0.732
			c0.704,0.544,1.379,1.112,1.99,1.756c-0.911,0.16-1.759,0.244-2.578,0.304c-0.406,0.024-0.819,0.074-1.228,0.128
			c-0.408,0.049-0.807,0.078-1.205,0.119c-0.398,0.037-0.782,0.041-1.178,0.089c-0.397,0.048-0.79,0.089-1.18,0.121
			c-0.784,0.079-1.538,0.088-2.318,0.173c-0.774,0.069-1.539,0.111-2.299,0.138c-0.769,0.054-1.535,0.104-2.298,0.124
			c-0.76,0.013-1.53,0.057-2.295,0.077c-0.766,0.02-1.528,0.006-2.3,0.031c-3.072-0.001-6.173-0.057-9.334-0.363
			c-0.791-0.079-1.585-0.165-2.385-0.267c-0.8-0.105-1.606-0.236-2.416-0.367c-0.813-0.153-1.627-0.295-2.456-0.496
			C254.678,251.392,253.845,251.179,252.986,250.894z" fill="#485A10"/>
		<path d="M249.35,245.152c-0.007-0.117,0.024-0.226,0.047-0.352c0.037-0.108,0.081-0.22,0.128-0.335
			c0.099-0.225,0.232-0.41,0.365-0.627c0.284-0.361,0.607-0.76,0.956-1.049c0.173-0.156,0.35-0.317,0.535-0.466
			c0.184-0.15,0.369-0.269,0.557-0.406c0.375-0.257,0.773-0.53,1.161-0.737c0.393-0.216,0.795-0.416,1.201-0.626
			c0.406-0.201,0.808-0.352,1.22-0.519c0.409-0.161,0.827-0.326,1.241-0.465c0.412-0.124,0.826-0.253,1.243-0.366
			c3.336-0.924,6.71-1.258,10.022-1.208c0.829,0.014,1.659,0.041,2.487,0.085c0.823,0.067,1.643,0.153,2.462,0.258
			c0.819,0.102,1.636,0.227,2.451,0.367c0.811,0.156,1.618,0.34,2.422,0.544c1.608,0.407,3.208,0.878,4.776,1.526
			c0.785,0.324,1.566,0.661,2.341,1.049c0.775,0.382,1.544,0.794,2.299,1.299c-0.848,0.349-1.682,0.605-2.511,0.832
			c-0.829,0.232-1.651,0.412-2.47,0.581c-1.636,0.301-3.254,0.59-4.859,0.748c-0.802,0.089-1.602,0.144-2.399,0.199
			c-0.795,0.065-1.587,0.116-2.377,0.144c-0.79,0.033-1.579,0.037-2.366,0.041c-0.783,0.019-1.564,0.021-2.346,0.01
			c-3.129-0.064-6.21-0.222-9.283-0.482c-0.384-0.027-0.771-0.069-1.16-0.107l-1.146-0.087l-1.161-0.106l-1.153-0.078
			c-0.404-0.053-0.76-0.033-1.157-0.061c-0.193-0.008-0.402-0.029-0.589-0.026c-0.186,0.007-0.38,0.003-0.578,0.003
			c-0.2-0.003-0.401,0.002-0.588,0.018c-0.191,0.014-0.397,0.025-0.595,0.049C250.151,244.868,249.722,244.909,249.35,245.152z" fill="#19381D"/>
		<path d="M246.158,234.932c0.686-0.627,1.427-1.15,2.182-1.622c0.754-0.487,1.533-0.895,2.32-1.295
			c0.791-0.377,1.592-0.733,2.405-1.051c0.814-0.302,1.637-0.591,2.468-0.837c3.324-0.995,6.774-1.452,10.232-1.481
			c1.728-0.044,3.462,0.115,5.183,0.303c0.86,0.121,1.717,0.284,2.569,0.452c0.426,0.087,0.85,0.175,1.274,0.275
			c0.422,0.119,0.843,0.235,1.261,0.365c0.837,0.254,1.668,0.517,2.485,0.83c0.815,0.336,1.616,0.714,2.407,1.094
			c0.392,0.206,0.787,0.389,1.171,0.614c0.381,0.24,0.762,0.468,1.133,0.724c0.746,0.498,1.474,1.023,2.161,1.633
			c-3.629,0.745-6.858,0.847-10.092,1.109c-0.401,0.023-0.8,0.033-1.198,0.047l-1.197,0.071c-0.796,0.041-1.586,0.058-2.374,0.069
			c-1.584,0.086-3.152,0.059-4.73,0.096c-3.152,0.012-6.314-0.045-9.55-0.219c-0.809-0.044-1.621-0.086-2.445-0.166
			c-0.818-0.054-1.65-0.148-2.485-0.232C249.658,235.521,247.967,235.31,246.158,234.932z" fill="#485A10"/>
		<path d="M249.89,216.063c0.33-0.292,0.732-0.505,1.126-0.689c0.199-0.087,0.404-0.175,0.61-0.254
			c0.203-0.076,0.41-0.134,0.618-0.201c0.423-0.146,0.834-0.216,1.259-0.311c0.428-0.097,0.846-0.143,1.268-0.195
			c1.7-0.201,3.368-0.145,5.01,0.036c3.273,0.384,6.361,1.353,9.284,2.605c1.436,0.664,2.862,1.367,4.212,2.185
			c0.674,0.41,1.337,0.841,1.991,1.284c0.655,0.443,1.3,0.901,1.912,1.408c2.48,1.984,4.77,4.246,6.597,7.171
			c-0.883-0.013-1.713-0.104-2.526-0.22c-0.815-0.111-1.602-0.265-2.381-0.429c-1.548-0.343-3.068-0.699-4.519-1.173l-2.166-0.707
			c-0.714-0.245-1.419-0.502-2.113-0.78c-1.393-0.544-2.769-1.081-4.109-1.709c-2.701-1.171-5.31-2.477-7.905-3.857
			c-1.3-0.668-2.594-1.413-3.918-2.109l-0.5-0.279c-0.168-0.093-0.334-0.164-0.502-0.259c-0.336-0.179-0.683-0.366-1.026-0.534
			c-0.173-0.089-0.35-0.168-0.528-0.265c-0.177-0.088-0.354-0.163-0.538-0.25C250.676,216.354,250.31,216.203,249.89,216.063z" fill="#19381D"/>
		<path d="M258.736,196.113c0.891-0.13,1.781-0.085,2.647,0.017c0.445,0.036,0.862,0.13,1.293,0.209
			c0.43,0.081,0.854,0.185,1.269,0.305c0.416,0.119,0.826,0.255,1.244,0.386c0.409,0.142,0.804,0.308,1.204,0.474
			c0.396,0.17,0.805,0.332,1.184,0.53c0.379,0.2,0.762,0.397,1.138,0.609c3.008,1.687,5.605,4.005,7.775,6.627
			c0.518,0.674,1.025,1.357,1.516,2.049c0.509,0.682,0.901,1.435,1.326,2.166c0.207,0.369,0.412,0.738,0.608,1.113l0.294,0.56
			l0.255,0.58c0.33,0.778,0.645,1.56,0.933,2.351c0.141,0.397,0.299,0.785,0.404,1.195c0.107,0.41,0.215,0.818,0.311,1.23
			c0.201,0.82,0.359,1.653,0.509,2.479c0.124,0.838,0.171,1.699,0.201,2.557c0.026,0.859,0.021,1.721-0.078,2.603
			c-1.399-1.157-2.48-2.383-3.553-3.581c-0.55-0.591-1.091-1.175-1.591-1.772c-0.503-0.595-0.973-1.202-1.49-1.77
			c-0.503-0.577-0.979-1.163-1.441-1.754c-0.442-0.604-0.97-1.139-1.42-1.726c-0.237-0.285-0.458-0.58-0.685-0.87l-0.335-0.439
			l-0.358-0.418c-0.471-0.561-0.927-1.132-1.371-1.712c-1.853-2.251-3.678-4.491-5.592-6.775c-0.482-0.568-0.953-1.162-1.455-1.726
			c-0.248-0.287-0.49-0.588-0.737-0.886l-0.761-0.878c-0.246-0.316-0.513-0.596-0.773-0.899l-0.792-0.919L258.736,196.113z" fill="#485A10"/>
		<path d="M273.612,175.16c0.507,1.035,0.931,2.07,1.33,3.105c0.404,1.035,0.762,2.072,1.112,3.107
			c0.683,2.073,1.289,4.145,1.817,6.221c1.065,4.15,1.876,8.308,2.553,12.469c0.672,4.163,1.195,8.327,1.599,12.521
			c0.211,2.095,0.373,4.203,0.539,6.333l0.506,6.555c-0.419-0.39-0.816-0.805-1.2-1.233c-0.36-0.437-0.728-0.879-1.065-1.339
			c-0.336-0.457-0.647-0.93-0.967-1.403c-0.301-0.477-0.583-0.963-0.877-1.449c-1.108-1.96-2.037-3.996-2.821-6.066
			c-1.568-4.143-2.608-8.406-3.299-12.699c-0.682-4.296-1.021-8.629-0.954-12.986c0.029-2.178,0.173-4.363,0.431-6.552
			c0.137-1.095,0.294-2.191,0.505-3.288C273.027,177.359,273.268,176.26,273.612,175.16z" fill="#19381D"/>
		<path d="M283.068,225.471c0.023-0.95,0.129-1.856,0.26-2.748c0.127-0.894,0.299-1.765,0.482-2.629
			c0.382-1.721,0.846-3.397,1.397-5.027c1.092-3.265,2.475-6.376,4.068-9.374c1.598-2.995,3.414-5.874,5.518-8.6
			c1.048-1.365,2.183-2.683,3.402-3.957c0.618-0.633,1.246-1.259,1.92-1.861c0.67-0.605,1.365-1.195,2.144-1.742
			c-0.021,0.951-0.125,1.858-0.254,2.751c-0.126,0.895-0.297,1.766-0.479,2.631c-0.38,1.721-0.845,3.398-1.396,5.028
			c-1.095,3.264-2.477,6.375-4.077,9.369c-1.606,2.991-3.422,5.871-5.527,8.595c-1.048,1.364-2.183,2.683-3.4,3.957
			c-0.616,0.633-1.244,1.26-1.917,1.863C284.538,224.332,283.844,224.923,283.068,225.471z" fill="#485A10"/>
		<path d="M285.173,233.895c-0.017-0.961,0.087-1.886,0.225-2.798c0.137-0.913,0.334-1.804,0.556-2.687
			c0.459-1.758,1.056-3.466,1.789-5.108c1.464-3.285,3.398-6.357,5.773-9.116c2.368-2.754,5.194-5.212,8.473-7.022
			c1.643-0.895,3.386-1.634,5.219-2.1c0.455-0.118,0.926-0.205,1.387-0.292l0.695-0.114c0.235-0.029,0.474-0.047,0.71-0.066
			c0.933-0.098,1.894-0.066,2.833,0.051c-0.676,0.701-1.345,1.279-1.97,1.909c-0.158,0.153-0.313,0.306-0.472,0.448l-0.455,0.465
			c-0.299,0.313-0.611,0.582-0.896,0.9c-1.179,1.19-2.269,2.41-3.359,3.59c-2.158,2.392-4.234,4.796-6.346,7.246
			c-2.119,2.438-4.243,4.929-6.541,7.389c-1.142,1.236-2.335,2.461-3.58,3.685c-0.63,0.608-1.265,1.22-1.937,1.822
			C286.613,232.705,285.926,233.305,285.173,233.895z" fill="#19381D"/>
		<path d="M318.069,222.354c-0.711,0.599-1.411,1.134-2.109,1.651c-0.694,0.526-1.391,1.006-2.076,1.497
			c-1.377,0.956-2.732,1.87-4.073,2.742c-2.674,1.758-5.291,3.382-7.765,5.078c-2.492,1.682-4.823,3.408-7.046,5.347
			c-1.093,0.985-2.185,2.015-3.245,3.183c-0.501,0.594-1.061,1.198-1.559,1.864c-0.552,0.651-1.006,1.364-1.61,2.1
			c-0.243-0.88-0.432-1.808-0.439-2.725c-0.069-0.937,0.049-1.85,0.165-2.792c0.321-1.846,0.981-3.647,1.882-5.306
			c0.893-1.672,2.06-3.152,3.333-4.501c1.277-1.35,2.704-2.515,4.206-3.529c3.005-2.037,6.315-3.447,9.738-4.275
			c1.711-0.416,3.462-0.665,5.229-0.752c0.885-0.04,1.775-0.038,2.67,0.022C316.264,222.018,317.164,222.122,318.069,222.354z" fill="#485A10"/>
		<path d="M323.962,231.795c-0.893,0.322-1.699,0.688-2.486,1.035c-0.783,0.38-1.537,0.716-2.266,1.123
			c-0.735,0.345-1.435,0.793-2.133,1.163c-0.351,0.176-0.688,0.41-1.027,0.612c-0.34,0.202-0.676,0.407-1.014,0.595
			c-2.671,1.643-5.168,3.442-7.67,5.313c-2.538,1.821-4.949,3.9-7.615,5.855c-1.276,1.042-2.619,2.058-4.056,3.042
			c-0.688,0.52-1.39,1.038-2.139,1.533c-0.745,0.498-1.52,0.985-2.38,1.43c0.152-0.932,0.388-1.82,0.654-2.699
			c0.262-0.881,0.571-1.739,0.894-2.596c0.746-1.642,1.592-3.25,2.555-4.785c2.048-2.976,4.477-5.765,7.494-7.941
			c2.965-2.203,6.375-3.965,10.089-4.776c0.943-0.167,1.862-0.358,2.814-0.423c0.954-0.06,1.893-0.103,2.848-0.019
			c0.943,0.053,1.892,0.215,2.808,0.445C322.249,230.958,323.157,231.267,323.962,231.795z" fill="#19381D"/>
		<path d="M294.26,259.823c0.777-1.556,1.545-2.952,2.377-4.323c0.834-1.353,1.703-2.657,2.631-3.896
			c1.846-2.488,3.867-4.794,6.051-6.94c2.181-2.152,4.524-4.148,7.088-5.943c1.276-0.903,2.631-1.731,4.043-2.509
			c0.713-0.382,1.436-0.756,2.196-1.095c0.757-0.342,1.535-0.664,2.382-0.922c-0.228,0.853-0.523,1.642-0.841,2.41
			c-0.314,0.772-0.666,1.509-1.027,2.238c-0.734,1.446-1.556,2.813-2.439,4.121c-1.767,2.615-3.794,4.992-6.015,7.179
			c-2.236,2.175-4.648,4.178-7.342,5.885c-1.344,0.856-2.761,1.632-4.26,2.307c-0.753,0.332-1.523,0.645-2.325,0.906
			C295.972,259.498,295.146,259.743,294.26,259.823z" fill="#19381D"/>
		<path d="M301.028,273.872c0.011-0.984,0.131-1.932,0.286-2.863c0.151-0.935,0.361-1.846,0.592-2.75
			c0.479-1.799,1.084-3.549,1.815-5.24c0.724-1.694,1.574-3.33,2.524-4.913c0.948-1.584,2.007-3.109,3.181-4.561
			c1.168-1.455,2.448-2.84,3.868-4.113c1.419-1.27,2.94-2.457,4.646-3.432c1.691-0.983,3.542-1.777,5.498-2.221
			c0.503-0.087,0.979-0.203,1.483-0.251c0.51-0.033,1-0.086,1.5-0.078c0.507,0.022,1.003,0.063,1.486,0.122
			c0.495,0.109,0.972,0.22,1.43,0.376c-1.684,1.002-3.007,2.064-4.225,3.217c-1.216,1.14-2.313,2.346-3.397,3.563
			c-1.081,1.217-2.12,2.494-3.168,3.765c-1.049,1.27-2.088,2.572-3.142,3.876c-2.117,2.601-4.254,5.26-6.585,7.864
			c-1.158,1.309-2.373,2.6-3.647,3.882C303.882,271.39,302.563,272.661,301.028,273.872z" fill="#485A10"/>
		<path d="M305.289,281.204c-0.035-0.921,0.027-1.804,0.118-2.674c0.088-0.872,0.226-1.723,0.381-2.567
			c0.326-1.681,0.757-3.32,1.293-4.912c1.065-3.187,2.498-6.213,4.255-9.079c1.768-2.857,3.854-5.574,6.481-7.934
			c1.317-1.173,2.775-2.259,4.471-3.096c0.853-0.405,1.769-0.758,2.758-0.914c0.494-0.077,1.002-0.105,1.506-0.03
			c0.499,0.079,0.981,0.248,1.335,0.549c-0.891,0.275-1.401,0.825-1.88,1.395c-0.465,0.587-0.873,1.21-1.258,1.864
			c-0.777,1.299-1.485,2.675-2.224,4.032c-1.461,2.733-2.982,5.474-4.649,8.165c-1.668,2.691-3.456,5.346-5.488,7.906
			c-1.011,1.283-2.096,2.535-3.253,3.761c-0.587,0.609-1.182,1.216-1.82,1.806C306.681,280.069,306.024,280.651,305.289,281.204z" fill="#19381D"/>
		<path d="M310.806,288.484c-0.414-0.778-0.595-1.622-0.74-2.465c-0.064-0.419-0.102-0.842-0.138-1.27
			c-0.02-0.419-0.016-0.838-0.021-1.265c-0.008-0.43,0.051-0.832,0.076-1.255c0.04-0.415,0.069-0.845,0.147-1.248
			c0.151-0.808,0.289-1.648,0.531-2.428c0.881-3.187,2.39-6.116,4.265-8.704c0.904-1.331,1.976-2.508,3.057-3.675l0.411-0.432
			l0.435-0.406c0.288-0.272,0.586-0.535,0.882-0.799c0.597-0.523,1.2-1.038,1.826-1.525c1.288-0.933,2.627-1.804,4.042-2.564
			c0.729-0.357,1.464-0.701,2.23-1.004c0.763-0.306,1.542-0.587,2.378-0.793c-0.256,0.839-0.569,1.603-0.898,2.341
			c-0.326,0.742-0.683,1.443-1.046,2.131c-0.704,1.395-1.435,2.728-2.243,3.972c-0.374,0.645-0.76,1.274-1.159,1.888
			c-0.39,0.619-0.831,1.201-1.215,1.812c-0.778,1.216-1.657,2.354-2.454,3.525l-0.63,0.859c-0.22,0.28-0.43,0.566-0.628,0.856
			c-0.408,0.574-0.825,1.144-1.265,1.702c-0.411,0.571-0.824,1.138-1.261,1.701c-0.228,0.278-0.43,0.564-0.637,0.849
			c-0.211,0.284-0.423,0.569-0.645,0.851c-0.225,0.283-0.44,0.566-0.644,0.857c-0.215,0.286-0.43,0.575-0.658,0.862
			c-0.232,0.287-0.422,0.583-0.651,0.874c-0.218,0.292-0.461,0.587-0.665,0.887C312.593,285.825,311.709,287.034,310.806,288.484z"
			 fill="#485A10"/>
		<path d="M314.921,293.689c-0.201-0.744-0.292-1.47-0.345-2.185c-0.056-0.718-0.057-1.423-0.031-2.123
			c0.064-1.395,0.258-2.764,0.581-4.091c0.633-2.66,1.741-5.184,3.254-7.512c1.531-2.31,3.497-4.449,6.008-6.016
			c1.237-0.788,2.643-1.399,4.115-1.742c0.368-0.083,0.734-0.161,1.118-0.196c0.383-0.033,0.741-0.092,1.133-0.069
			c0.382,0.008,0.753,0.017,1.129,0.074c0.38,0.07,0.747,0.143,1.109,0.261c-0.249,0.31-0.492,0.575-0.723,0.837
			c-0.232,0.255-0.44,0.546-0.652,0.789c-0.21,0.247-0.403,0.518-0.593,0.771c-0.092,0.132-0.192,0.243-0.284,0.367l-0.265,0.387
			c-0.71,0.994-1.337,1.963-1.955,2.94l-1.837,2.904c-0.611,0.975-1.236,1.946-1.886,2.919c-1.289,1.96-2.661,3.928-4.233,5.889
			c-0.783,0.982-1.631,1.953-2.545,2.924C317.086,291.782,316.119,292.747,314.921,293.689z" fill="#19381D"/>
		<path d="M283.172,224.087c0.903,4.788,2.125,9.542,3.498,14.232c1.38,4.692,2.946,9.328,4.706,13.888
			c3.523,9.113,7.791,17.952,13.05,26.161c5.251,8.195,11.515,15.783,18.98,21.97c1.872,1.535,3.81,2.985,5.81,4.341
			c2.008,1.345,4.089,2.574,6.218,3.707c2.135,1.124,4.34,2.105,6.579,2.993c2.247,0.87,4.547,1.593,6.87,2.223l-0.606,2.262
			c-2.401-0.684-4.775-1.465-7.09-2.396c-2.307-0.949-4.574-1.995-6.765-3.183c-2.185-1.198-4.314-2.494-6.363-3.906
			c-2.041-1.422-4.013-2.938-5.913-4.538c-7.575-6.446-13.842-14.258-19.055-22.629c-5.219-8.385-9.406-17.358-12.835-26.58
			c-1.712-4.614-3.227-9.298-4.553-14.033c-1.321-4.74-2.483-9.513-3.336-14.376L283.172,224.087z" fill="#19381D"/>
	</g>
	<g>
		<g>
			<path d="M355.71,293.666c5.63-5.356,10.78-11.234,15.203-17.628c2.251-3.17,4.209-6.539,6.043-9.962
				c1.786-3.453,3.33-7.026,4.656-10.677c2.552-7.335,4.092-15.035,4.307-22.793c0.113-3.876-0.096-7.759-0.617-11.598
				c-0.552-3.832-1.353-7.64-2.731-11.276l-0.232,0.095c1.308,3.613,2.053,7.425,2.542,11.236c0.46,3.822,0.609,7.679,0.439,11.52
				c-0.33,7.689-1.97,15.285-4.599,22.493c-1.365,3.588-2.942,7.093-4.756,10.474c-1.862,3.353-3.843,6.647-6.112,9.742
				c-4.459,6.244-9.628,11.968-15.267,17.174L355.71,293.666z"/>
			<path d="M383.722,197.403c0.414,1.796,1.015,3.59,0.937,5.414c-0.147,3.451-1.648,6.24-1.648,6.24s-0.152,0.475-0.498,1.308
				c0.062-0.977,0.12-1.952,0.189-2.931C382.948,204.105,383.844,202.383,383.722,197.403z"/>
		</g>
		<path d="M385.467,221.393c-0.296-2.411-1.333-4.513-2.556-6.415c-1.253-1.891-2.773-3.58-4.487-5.032
			c-1.729-1.432-3.612-2.685-5.684-3.589c-2.056-0.924-4.27-1.556-6.671-1.635c1.359,2.008,2.865,3.542,4.353,5.058
			c1.522,1.462,3.021,2.878,4.61,4.18c1.571,1.325,3.177,2.599,4.874,3.837C381.617,219.035,383.378,220.222,385.467,221.393z" fill="#19381D"/>
		<path d="M385.325,234.693c-0.792-4.912-3.387-9.061-6.698-12.433c-1.661-1.689-3.568-3.146-5.661-4.301
			c-2.077-1.169-4.39-1.996-6.88-2.256c1.365,2.141,2.869,3.797,4.317,5.499c1.479,1.652,2.971,3.223,4.501,4.768
			c1.537,1.536,3.122,3.032,4.799,4.507C381.408,231.932,383.116,233.426,385.325,234.693z" fill="#485A10"/>
		<path d="M384.174,242.929c-0.955-2.424-2.114-4.361-3.347-6.206c-1.242-1.825-2.557-3.508-3.961-5.101
			c-1.413-1.587-2.887-3.099-4.51-4.557c-1.669-1.438-3.331-2.888-5.612-4.214c-0.148,2.594,0.434,5.015,1.39,7.192
			c0.957,2.184,2.246,4.189,3.81,5.929c1.554,1.751,3.347,3.28,5.362,4.508C379.336,241.683,381.562,242.667,384.174,242.929z" fill="#19381D"/>
		<path d="M382.021,252.61c-0.874-2.793-2.353-5.214-4.024-7.454c-1.694-2.225-3.654-4.237-5.819-6.017
			c-2.163-1.781-4.586-3.278-7.163-4.454c-2.596-1.138-5.414-1.911-8.325-1.909c2.107,2.041,4.14,3.703,6.147,5.422
			c1.995,1.722,3.999,3.36,6.022,5.015c2.021,1.655,4.085,3.275,6.233,4.864C377.254,249.66,379.471,251.208,382.021,252.61z" fill="#485A10"/>
		<path d="M376.538,265.185c0.4-3.016-0.368-5.908-1.442-8.548c-1.118-2.642-2.69-5.05-4.541-7.192
			c-1.88-2.115-4.037-3.973-6.451-5.443c-1.187-0.759-2.494-1.351-3.798-1.909c-1.345-0.503-2.738-0.911-4.222-1.128
			c0.664,1.385,1.456,2.532,2.229,3.669c0.747,1.166,1.595,2.178,2.374,3.243c1.624,2.057,3.241,4.018,4.932,5.901
			c1.657,1.91,3.367,3.756,5.139,5.631C372.541,261.291,374.383,263.129,376.538,265.185z" fill="#485A10"/>
		<path d="M371.751,273.433c0.724-2.403,0.44-4.781-0.195-6.969c-0.666-2.189-1.762-4.236-3.225-5.986
			c-1.454-1.752-3.219-3.264-5.265-4.308c-2.015-1.075-4.307-1.701-6.767-1.581c1.101,2.26,2.318,3.891,3.449,5.542
			c1.182,1.579,2.303,3.089,3.512,4.523c1.212,1.436,2.435,2.863,3.791,4.304C368.428,270.405,369.87,271.84,371.751,273.433z" fill="#19381D"/>
		<path d="M367.921,279.288c2.636,0.33,5.002,0.086,7.293-0.328c2.28-0.439,4.46-1.094,6.56-1.935c2.1-0.842,4.117-1.87,6.057-3.104
			c1.943-1.256,3.785-2.674,5.589-4.614c-2.587-0.685-5.046-0.556-7.386-0.23c-2.34,0.355-4.578,0.987-6.712,1.854
			c-2.136,0.864-4.179,1.948-6.106,3.284C371.299,275.573,369.467,277.124,367.921,279.288z" fill="#485A10"/>
		<path d="M377.642,263.829c3.169,1.082,6.344,1.079,9.41,0.673c3.065-0.446,6.042-1.416,8.818-2.843
			c2.778-1.418,5.314-3.413,7.419-5.796c2.077-2.413,3.656-5.375,4.103-8.653c-3.099,1.318-5.503,2.621-7.985,3.819
			c-2.466,1.187-4.793,2.408-7.183,3.642c-2.384,1.231-4.76,2.541-7.183,3.99C382.615,260.13,380.184,261.703,377.642,263.829z" fill="#19381D"/>
		<path d="M381.847,253.553c3.281,0.018,6.207-0.92,8.927-2.171c2.706-1.287,5.184-2.996,7.381-5.041
			c2.194-2.046,4.057-4.503,5.473-7.221c1.368-2.747,2.257-5.85,2.013-9.095c-2.734,1.835-4.813,3.571-6.914,5.298
			c-2.1,1.711-4.041,3.458-5.977,5.281c-1.939,1.814-3.814,3.729-5.652,5.812C385.267,248.522,383.488,250.744,381.847,253.553z" fill="#485A10"/>
		<path d="M385.475,238.743c3.158-0.708,5.745-2.32,8.033-4.207c2.264-1.921,4.182-4.23,5.696-6.814
			c1.509-2.585,2.532-5.511,2.976-8.54c0.395-3.04,0.1-6.269-1.341-9.127c-1.852,2.675-3.151,4.933-4.538,7.156
			c-1.39,2.204-2.649,4.358-3.927,6.573c-1.286,2.206-2.515,4.48-3.701,6.903C387.497,233.131,386.378,235.67,385.475,238.743z" fill="#19381D"/>
		<path d="M385.234,220.891c1.792-0.81,3.232-2.048,4.501-3.412c1.254-1.38,2.302-2.94,3.129-4.623
			c0.835-1.677,1.384-3.517,1.653-5.395c0.247-1.882,0.13-3.855-0.55-5.68c-0.963,1.723-1.652,3.279-2.426,4.812l-2.223,4.542
			c-0.74,1.514-1.461,3.049-2.163,4.644C386.458,217.383,385.785,219.02,385.234,220.891z" fill="#485A10"/>
		<path d="M376.161,196.963c-0.34,1.29-0.296,2.576-0.129,3.831c0.188,1.252,0.557,2.475,1.084,3.634
			c0.521,1.161,1.249,2.243,2.116,3.195c0.883,0.94,1.958,1.737,3.205,2.172c-0.495-1.244-1.028-2.269-1.5-3.339l-1.435-3.128
			C378.522,201.243,377.596,199.15,376.161,196.963z" fill="#19381D"/>
</g>
</g>
</svg>


