<svg id="Layer_1" viewBox="0 0 24 24" xmlns="http://www.w3.org/2000/svg" data-name="Layer 1"><path d="m23.148 8.681c-.515-.469-1.186-.712-1.878-.678-.697.032-1.339.334-1.794.835l-3.541 3.737c.032.21.065.42.065.638 0 2.083-1.555 3.876-3.617 4.17l-4.241.606-.283-1.979 4.241-.606c1.084-.155 1.9-1.097 1.9-2.191 0-1.22-.993-2.213-2.213-2.213h-8.787c-1.654 0-3 1.346-3 3v7c0 1.654 1.346 3 3 3h9.664l10.674-11.655c.948-1.062.862-2.707-.189-3.665z" fill="#B4CDED"/><path d="m11 9.167s-5-3.537-5-6.417c0-1.519 1.119-2.75 2.5-2.75s2.5 1.231 2.5 2.75c0-1.519 1.119-2.75 2.5-2.75s2.5 1.231 2.5 2.75c0 2.88-5 6.417-5 6.417z" fill="#0D1821"/></svg>